# WaveFront *.obj file (generated by Autodesk ATF)

mtllib mobile stand v1.mtl

g Body1

v -5.000000 16.000000 1.000000
v -5.000000 16.000000 8.714289
v -5.000000 16.000000 16.428579
v -5.000000 16.000000 24.142868
v -5.000000 11.982951 14.285740
v -5.000000 7.965902 4.428613
v -5.000000 3.469714 8.938392
v -5.000000 5.077120 10.540953
v -5.000000 6.267895 9.346578
v -5.000000 5.645410 8.249817
v -5.000000 7.485240 6.771702
v -5.000000 10.656827 14.339612
v -5.000000 13.828413 21.907522
v -5.000000 17.000000 29.475432
v -5.000000 17.000000 19.650288
v -5.000000 17.000000 9.825144
v -5.000000 17.000000 0.000000
v -5.000000 8.500000 0.000000
v -5.000000 0.000000 0.000000
v -5.000000 0.000000 1.000000
v -5.000000 8.000000 1.000000
v 5.000000 16.000000 24.142868
v 5.000000 11.982951 14.285740
v 5.000000 7.965902 4.428613
v 5.000000 3.469714 8.938392
v 5.000000 5.077120 10.540953
v 5.000000 6.267895 9.346578
v 5.000000 5.645410 8.249817
v 5.000000 7.485240 6.771702
v 5.000000 10.656827 14.339612
v 5.000000 13.828413 21.907522
v 5.000000 17.000000 29.475432
v 5.000000 17.000000 19.650288
v 5.000000 17.000000 9.825144
v 5.000000 17.000000 0.000000
v 5.000000 8.500000 0.000000
v 5.000000 0.000000 0.000000
v 5.000000 0.000000 1.000000
v 5.000000 8.000000 1.000000
v 5.000000 16.000000 1.000000
v 5.000000 16.000000 8.714289
v 5.000000 16.000000 16.428579
vt -6.023427 7.500000 0.000000
vt -14.737716 8.500000 0.000000
vt -13.737716 7.500000 0.000000
vt -14.737716 -0.000000 0.000000
vt -13.737716 -0.500000 0.000000
vt -14.737716 -8.500000 0.000000
vt -13.737716 -8.500000 0.000000
vt -4.912572 8.500000 0.000000
vt 1.690863 7.500000 0.000000
vt 4.912572 8.500000 0.000000
vt 9.405152 7.500000 0.000000
vt 14.737716 8.500000 0.000000
vt 7.169806 5.328413 0.000000
vt -0.451975 3.482951 0.000000
vt -0.398104 2.156827 0.000000
vt -7.966014 -1.014760 0.000000
vt -10.309103 -0.534098 0.000000
vt -6.487898 -2.854590 0.000000
vt -5.799324 -5.030286 0.000000
vt -4.196763 -3.422880 0.000000
vt -5.391138 -2.232105 0.000000
vt 21.288461 5.000000 0.000000
vt 10.644230 5.000000 0.000000
vt 21.288461 -5.000000 0.000000
vt 10.644230 -5.000000 0.000000
vt 0.000000 5.000000 0.000000
vt 0.000000 -5.000000 0.000000
vt 6.368187 5.000000 0.000000
vt 0.000000 5.000000 0.000000
vt 6.368187 -5.000000 0.000000
vt 0.000000 -5.000000 0.000000
vt 2.269792 5.000000 0.000000
vt -0.000000 5.000000 0.000000
vt 2.269792 -5.000000 0.000000
vt -0.000000 -5.000000 0.000000
vt 1.686558 5.000000 0.000000
vt -0.000000 5.000000 0.000000
vt 1.686558 -5.000000 0.000000
vt -0.000000 -5.000000 0.000000
vt 1.261099 5.000000 0.000000
vt 0.000000 5.000000 0.000000
vt 1.261099 -5.000000 0.000000
vt 0.000000 -5.000000 0.000000
vt 2.360043 5.000000 0.000000
vt 0.000000 5.000000 0.000000
vt 2.360043 -5.000000 0.000000
vt 0.000000 -5.000000 0.000000
vt 24.616864 5.000000 0.000000
vt 16.411243 5.000000 0.000000
vt 24.616864 -5.000000 0.000000
vt 16.411243 -5.000000 0.000000
vt 8.205621 5.000000 0.000000
vt 8.205621 -5.000000 0.000000
vt 0.000000 5.000000 0.000000
vt -0.000000 -5.000000 0.000000
vt 29.475432 5.000000 0.000000
vt 19.650288 5.000000 0.000000
vt 29.475432 -5.000000 0.000000
vt 19.650288 -5.000000 0.000000
vt 9.825144 5.000000 0.000000
vt 9.825144 -5.000000 0.000000
vt 0.000000 5.000000 0.000000
vt 0.000000 -5.000000 0.000000
vt 17.000000 5.000000 0.000000
vt 8.500000 5.000000 0.000000
vt 17.000000 -5.000000 0.000000
vt 8.500000 -5.000000 0.000000
vt 0.000000 5.000000 0.000000
vt 0.000000 -5.000000 0.000000
vt 1.000000 5.000000 0.000000
vt 0.000000 5.000000 0.000000
vt 1.000000 -5.000000 0.000000
vt 0.000000 -5.000000 0.000000
vt 16.000000 5.000000 0.000000
vt 8.000000 5.000000 0.000000
vt 16.000000 -5.000000 0.000000
vt 8.000000 -5.000000 0.000000
vt -0.000000 5.000000 0.000000
vt -0.000000 -5.000000 0.000000
vt 23.142868 5.000000 0.000000
vt 15.428579 5.000000 0.000000
vt 23.142868 -5.000000 0.000000
vt 15.428579 -5.000000 0.000000
vt 7.714289 5.000000 0.000000
vt 7.714289 -5.000000 0.000000
vt 0.000000 5.000000 0.000000
vt 0.000000 -5.000000 0.000000
vt -1.690863 7.500000 0.000000
vt -4.912572 8.500000 0.000000
vt -9.405152 7.500000 0.000000
vt -14.737716 8.500000 0.000000
vt -7.169806 5.328413 0.000000
vt 4.912572 8.500000 0.000000
vt 6.023427 7.500000 0.000000
vt 14.737716 8.500000 0.000000
vt 13.737716 7.500000 0.000000
vt 14.737716 -0.000000 0.000000
vt 13.737716 -0.500000 0.000000
vt 14.737716 -8.500000 0.000000
vt 13.737716 -8.500000 0.000000
vt 0.451975 3.482951 0.000000
vt 0.398104 2.156827 0.000000
vt 7.966014 -1.014760 0.000000
vt 10.309103 -0.534098 0.000000
vt 6.487898 -2.854590 0.000000
vt 5.799324 -5.030286 0.000000
vt 4.196763 -3.422880 0.000000
vt 5.391138 -2.232105 0.000000
vn -1.000000 0.000000 0.000000
vn -1.000000 0.000000 0.000000
vn -1.000000 0.000000 0.000000
vn -1.000000 0.000000 0.000000
vn -1.000000 0.000000 0.000000
vn -1.000000 0.000000 0.000000
vn -1.000000 0.000000 0.000000
vn -1.000000 0.000000 0.000000
vn -1.000000 0.000000 0.000000
vn -1.000000 0.000000 0.000000
vn -1.000000 0.000000 0.000000
vn -1.000000 0.000000 0.000000
vn -1.000000 0.000000 0.000000
vn -1.000000 0.000000 0.000000
vn -1.000000 0.000000 0.000000
vn -1.000000 0.000000 0.000000
vn -1.000000 0.000000 0.000000
vn -1.000000 0.000000 0.000000
vn -1.000000 0.000000 0.000000
vn -1.000000 0.000000 0.000000
vn -1.000000 0.000000 0.000000
vn 0.000000 0.926054 -0.377392
vn 0.000000 0.926054 -0.377392
vn 0.000000 0.926054 -0.377392
vn 0.000000 0.926054 -0.377392
vn 0.000000 0.926054 -0.377392
vn 0.000000 0.926054 -0.377392
vn 0.000000 -0.708173 -0.706039
vn 0.000000 -0.708173 -0.706039
vn 0.000000 -0.708173 -0.706039
vn 0.000000 -0.708173 -0.706039
vn 0.000000 -0.706039 0.708173
vn 0.000000 -0.706039 0.708173
vn 0.000000 -0.706039 0.708173
vn 0.000000 -0.706039 0.708173
vn -0.000000 0.708173 0.706039
vn -0.000000 0.708173 0.706039
vn -0.000000 0.708173 0.706039
vn -0.000000 0.708173 0.706039
vn 0.000000 0.869686 -0.493606
vn 0.000000 0.869686 -0.493606
vn 0.000000 0.869686 -0.493606
vn 0.000000 0.869686 -0.493606
vn -0.000000 0.626309 0.779575
vn -0.000000 0.626309 0.779575
vn -0.000000 0.626309 0.779575
vn -0.000000 0.626309 0.779575
vn 0.000000 -0.922284 0.386514
vn 0.000000 -0.922284 0.386514
vn 0.000000 -0.922284 0.386514
vn 0.000000 -0.922284 0.386514
vn 0.000000 -0.922284 0.386514
vn 0.000000 -0.922284 0.386514
vn 0.000000 -0.922284 0.386514
vn 0.000000 -0.922284 0.386514
vn 0.000000 1.000000 -0.000000
vn 0.000000 1.000000 -0.000000
vn 0.000000 1.000000 -0.000000
vn 0.000000 1.000000 -0.000000
vn 0.000000 1.000000 -0.000000
vn 0.000000 1.000000 -0.000000
vn 0.000000 1.000000 -0.000000
vn 0.000000 1.000000 -0.000000
vn 0.000000 0.000000 -1.000000
vn 0.000000 0.000000 -1.000000
vn 0.000000 0.000000 -1.000000
vn 0.000000 0.000000 -1.000000
vn 0.000000 0.000000 -1.000000
vn 0.000000 0.000000 -1.000000
vn 0.000000 -1.000000 0.000000
vn 0.000000 -1.000000 0.000000
vn 0.000000 -1.000000 0.000000
vn 0.000000 -1.000000 0.000000
vn 0.000000 -0.000000 1.000000
vn 0.000000 -0.000000 1.000000
vn 0.000000 -0.000000 1.000000
vn 0.000000 -0.000000 1.000000
vn 0.000000 -0.000000 1.000000
vn 0.000000 -0.000000 1.000000
vn 0.000000 -1.000000 -0.000000
vn 0.000000 -1.000000 -0.000000
vn 0.000000 -1.000000 -0.000000
vn 0.000000 -1.000000 -0.000000
vn 0.000000 -1.000000 -0.000000
vn 0.000000 -1.000000 -0.000000
vn 0.000000 -1.000000 -0.000000
vn 0.000000 -1.000000 -0.000000
vn 1.000000 0.000000 0.000000
vn 1.000000 0.000000 0.000000
vn 1.000000 0.000000 0.000000
vn 1.000000 0.000000 0.000000
vn 1.000000 0.000000 0.000000
vn 1.000000 0.000000 0.000000
vn 1.000000 0.000000 0.000000
vn 1.000000 0.000000 0.000000
vn 1.000000 0.000000 0.000000
vn 1.000000 0.000000 0.000000
vn 1.000000 0.000000 0.000000
vn 1.000000 0.000000 0.000000
vn 1.000000 0.000000 0.000000
vn 1.000000 0.000000 0.000000
vn 1.000000 0.000000 0.000000
vn 1.000000 0.000000 0.000000
vn 1.000000 0.000000 0.000000
vn 1.000000 0.000000 0.000000
vn 1.000000 0.000000 0.000000
vn 1.000000 0.000000 0.000000
vn 1.000000 0.000000 0.000000
usemtl Steel_-_Satin
f 2/1/1 17/2/2 1/3/3
f 1/3/3 17/2/2 18/4/4
f 1/3/3 18/4/4 21/5/5
f 21/5/5 18/4/4 19/6/6
f 21/5/5 19/6/6 20/7/7
f 17/2/2 2/1/1 16/8/8
f 16/8/8 2/1/1 3/9/9
f 16/8/8 3/9/9 15/10/10
f 15/10/10 3/9/9 4/11/11
f 15/10/10 4/11/11 14/12/12
f 14/12/12 4/11/11 13/13/13
f 13/13/13 4/11/11 5/14/14
f 13/13/13 5/14/14 12/15/15
f 12/15/15 5/14/14 11/16/16
f 11/16/16 5/14/14 6/17/17
f 11/16/16 6/17/17 10/18/18
f 10/18/18 6/17/17 7/19/19
f 10/18/18 7/19/19 8/20/20
f 8/20/20 9/21/21 10/18/18
f 22/22/22 23/23/23 4/24/24
f 4/24/24 23/23/23 5/25/25
f 5/25/25 23/23/23 24/26/26
f 5/25/25 24/26/26 6/27/27
f 24/28/28 25/29/29 6/30/30
f 6/30/30 25/29/29 7/31/31
f 25/32/32 26/33/33 7/34/34
f 7/34/34 26/33/33 8/35/35
f 26/36/36 27/37/37 8/38/38
f 8/38/38 27/37/37 9/39/39
f 27/40/40 28/41/41 9/42/42
f 9/42/42 28/41/41 10/43/43
f 28/44/44 29/45/45 10/46/46
f 10/46/46 29/45/45 11/47/47
f 29/48/48 30/49/49 11/50/50
f 11/50/50 30/49/49 12/51/51
f 12/51/51 30/49/49 31/52/52
f 12/51/51 31/52/52 13/53/53
f 13/53/53 31/52/52 32/54/54
f 13/53/53 32/54/54 14/55/55
f 32/56/56 33/57/57 14/58/58
f 14/58/58 33/57/57 15/59/59
f 15/59/59 33/57/57 34/60/60
f 15/59/59 34/60/60 16/61/61
f 16/61/61 34/60/60 35/62/62
f 16/61/61 35/62/62 17/63/63
f 35/64/64 36/65/65 17/66/66
f 17/66/66 36/65/65 18/67/67
f 18/67/67 36/65/65 37/68/68
f 18/67/67 37/68/68 19/69/69
f 37/70/70 38/71/71 19/72/72
f 19/72/72 38/71/71 20/73/73
f 38/74/74 39/75/75 20/76/76
f 20/76/76 39/75/75 21/77/77
f 21/77/77 39/75/75 40/78/78
f 21/77/77 40/78/78 1/79/79
f 40/80/80 41/81/81 1/82/82
f 1/82/82 41/81/81 2/83/83
f 2/83/83 41/81/81 42/84/84
f 2/83/83 42/84/84 3/85/85
f 3/85/85 42/84/84 22/86/86
f 3/85/85 22/86/86 4/87/87
f 42/88/88 33/89/89 22/90/90
f 22/90/90 33/89/89 32/91/91
f 22/90/90 32/91/91 31/92/92
f 33/89/89 42/88/88 34/93/93
f 34/93/93 42/88/88 41/94/94
f 34/93/93 41/94/94 35/95/95
f 35/95/95 41/94/94 40/96/96
f 35/95/95 40/96/96 36/97/97
f 36/97/97 40/96/96 39/98/98
f 36/97/97 39/98/98 37/99/99
f 37/99/99 39/98/98 38/100/100
f 22/90/90 31/92/92 23/101/101
f 23/101/101 31/92/92 30/102/102
f 23/101/101 30/102/102 29/103/103
f 23/101/101 29/103/103 24/104/104
f 24/104/104 29/103/103 28/105/105
f 24/104/104 28/105/105 25/106/106
f 25/106/106 28/105/105 26/107/107
f 26/107/107 28/105/105 27/108/108
# 42 vertices
# 108 texture params
# 108 normals
# 80 facets

# 1 groups
